<mxfile host="app.diagrams.net" agent="Mozilla/5.0 (X11; Linux x86_64) AppleWebKit/537.36 (KHTML, like Gecko) Chrome/141.0.0.0 Safari/537.36" version="28.2.7">
  <diagram name="Страница — 1" id="US42sMlInG96SZF51ZLR">
    <mxGraphModel dx="1668" dy="879" grid="1" gridSize="10" guides="1" tooltips="1" connect="1" arrows="1" fold="1" page="1" pageScale="1" pageWidth="827" pageHeight="1169" math="0" shadow="0">
      <root>
        <mxCell id="0" />
        <mxCell id="1" parent="0" />
        <mxCell id="aALS2KatxD9Vpgga0ZvU-4" value="" style="edgeStyle=none;curved=1;rounded=0;orthogonalLoop=1;jettySize=auto;html=1;fontSize=12;startSize=8;endSize=8;" parent="1" source="aALS2KatxD9Vpgga0ZvU-1" edge="1">
          <mxGeometry relative="1" as="geometry">
            <mxPoint x="295" y="160" as="targetPoint" />
          </mxGeometry>
        </mxCell>
        <mxCell id="aALS2KatxD9Vpgga0ZvU-1" value="Actor" style="shape=umlActor;verticalLabelPosition=bottom;verticalAlign=top;html=1;outlineConnect=0;" parent="1" vertex="1">
          <mxGeometry x="280" y="40" width="30" height="60" as="geometry" />
        </mxCell>
        <mxCell id="aALS2KatxD9Vpgga0ZvU-11" value="" style="edgeStyle=none;curved=1;rounded=0;orthogonalLoop=1;jettySize=auto;html=1;fontSize=12;startSize=8;endSize=8;" parent="1" target="aALS2KatxD9Vpgga0ZvU-10" edge="1">
          <mxGeometry relative="1" as="geometry">
            <mxPoint x="294.9999999999999" y="220" as="sourcePoint" />
          </mxGeometry>
        </mxCell>
        <mxCell id="aALS2KatxD9Vpgga0ZvU-13" value="" style="edgeStyle=none;curved=1;rounded=0;orthogonalLoop=1;jettySize=auto;html=1;fontSize=12;startSize=8;endSize=8;" parent="1" source="aALS2KatxD9Vpgga0ZvU-10" edge="1">
          <mxGeometry relative="1" as="geometry">
            <mxPoint x="294.9999999999999" y="360" as="targetPoint" />
          </mxGeometry>
        </mxCell>
        <mxCell id="aALS2KatxD9Vpgga0ZvU-10" value="бот приветствует и говорит что может сделать" style="rounded=1;whiteSpace=wrap;html=1;" parent="1" vertex="1">
          <mxGeometry x="235" y="260" width="120" height="60" as="geometry" />
        </mxCell>
        <mxCell id="aALS2KatxD9Vpgga0ZvU-14" value="/start" style="ellipse;whiteSpace=wrap;html=1;" parent="1" vertex="1">
          <mxGeometry x="235" y="160" width="120" height="60" as="geometry" />
        </mxCell>
        <mxCell id="aALS2KatxD9Vpgga0ZvU-17" value="" style="edgeStyle=none;curved=1;rounded=0;orthogonalLoop=1;jettySize=auto;html=1;fontSize=12;startSize=8;endSize=8;" parent="1" source="aALS2KatxD9Vpgga0ZvU-15" target="aALS2KatxD9Vpgga0ZvU-16" edge="1">
          <mxGeometry relative="1" as="geometry" />
        </mxCell>
        <mxCell id="aALS2KatxD9Vpgga0ZvU-15" value="пользователь отправляет сигнал, что хочет добавить слова, и вызывает команду &quot;/add&quot;" style="ellipse;whiteSpace=wrap;html=1;" parent="1" vertex="1">
          <mxGeometry x="217.5" y="360" width="155" height="110" as="geometry" />
        </mxCell>
        <mxCell id="aALS2KatxD9Vpgga0ZvU-19" value="" style="edgeStyle=none;curved=1;rounded=0;orthogonalLoop=1;jettySize=auto;html=1;fontSize=12;startSize=8;endSize=8;" parent="1" source="aALS2KatxD9Vpgga0ZvU-16" target="aALS2KatxD9Vpgga0ZvU-18" edge="1">
          <mxGeometry relative="1" as="geometry" />
        </mxCell>
        <mxCell id="aALS2KatxD9Vpgga0ZvU-16" value="бот готов принимать слова и добавить их в хранилище" style="whiteSpace=wrap;html=1;" parent="1" vertex="1">
          <mxGeometry x="235" y="500" width="120" height="60" as="geometry" />
        </mxCell>
        <mxCell id="aALS2KatxD9Vpgga0ZvU-21" value="" style="edgeStyle=none;curved=1;rounded=0;orthogonalLoop=1;jettySize=auto;html=1;fontSize=12;startSize=8;endSize=8;" parent="1" source="aALS2KatxD9Vpgga0ZvU-18" target="aALS2KatxD9Vpgga0ZvU-20" edge="1">
          <mxGeometry relative="1" as="geometry" />
        </mxCell>
        <mxCell id="aALS2KatxD9Vpgga0ZvU-18" value="пользователь отправляет нужное количество слов&amp;nbsp;" style="ellipse;whiteSpace=wrap;html=1;" parent="1" vertex="1">
          <mxGeometry x="240" y="610" width="120" height="80" as="geometry" />
        </mxCell>
        <mxCell id="aALS2KatxD9Vpgga0ZvU-23" value="" style="edgeStyle=none;curved=1;rounded=0;orthogonalLoop=1;jettySize=auto;html=1;fontSize=12;startSize=8;endSize=8;" parent="1" source="aALS2KatxD9Vpgga0ZvU-20" target="aALS2KatxD9Vpgga0ZvU-22" edge="1">
          <mxGeometry relative="1" as="geometry" />
        </mxCell>
        <mxCell id="aALS2KatxD9Vpgga0ZvU-20" value="бот сохраняет слова и затем на сервере переводит эти слова и отправляет слово и его перевод" style="whiteSpace=wrap;html=1;" parent="1" vertex="1">
          <mxGeometry x="220" y="740" width="160" height="80" as="geometry" />
        </mxCell>
        <mxCell id="aALS2KatxD9Vpgga0ZvU-25" value="" style="edgeStyle=none;curved=1;rounded=0;orthogonalLoop=1;jettySize=auto;html=1;fontSize=12;startSize=8;endSize=8;" parent="1" source="aALS2KatxD9Vpgga0ZvU-22" target="aALS2KatxD9Vpgga0ZvU-24" edge="1">
          <mxGeometry relative="1" as="geometry" />
        </mxCell>
        <mxCell id="aALS2KatxD9Vpgga0ZvU-22" value="пользователь вызывает команд /stop чтобы завершить добавление слов" style="ellipse;whiteSpace=wrap;html=1;" parent="1" vertex="1">
          <mxGeometry x="217.5" y="870" width="160" height="80" as="geometry" />
        </mxCell>
        <mxCell id="aALS2KatxD9Vpgga0ZvU-27" value="" style="edgeStyle=none;curved=1;rounded=0;orthogonalLoop=1;jettySize=auto;html=1;fontSize=12;startSize=8;endSize=8;" parent="1" source="aALS2KatxD9Vpgga0ZvU-24" target="aALS2KatxD9Vpgga0ZvU-26" edge="1">
          <mxGeometry relative="1" as="geometry" />
        </mxCell>
        <mxCell id="aALS2KatxD9Vpgga0ZvU-29" value="" style="edgeStyle=none;curved=1;rounded=0;orthogonalLoop=1;jettySize=auto;html=1;fontSize=12;startSize=8;endSize=8;" parent="1" source="aALS2KatxD9Vpgga0ZvU-24" target="aALS2KatxD9Vpgga0ZvU-28" edge="1">
          <mxGeometry relative="1" as="geometry" />
        </mxCell>
        <mxCell id="aALS2KatxD9Vpgga0ZvU-24" value="бот отправляет слова в рандомном порядке&amp;nbsp;" style="whiteSpace=wrap;html=1;" parent="1" vertex="1">
          <mxGeometry x="240" y="990" width="120" height="60" as="geometry" />
        </mxCell>
        <mxCell id="aALS2KatxD9Vpgga0ZvU-31" value="" style="edgeStyle=none;curved=1;rounded=0;orthogonalLoop=1;jettySize=auto;html=1;fontSize=12;startSize=8;endSize=8;" parent="1" source="aALS2KatxD9Vpgga0ZvU-26" target="aALS2KatxD9Vpgga0ZvU-30" edge="1">
          <mxGeometry relative="1" as="geometry" />
        </mxCell>
        <mxCell id="aALS2KatxD9Vpgga0ZvU-26" value="если пользователь отвечает правильно, то говорит, что правильно&amp;nbsp;" style="whiteSpace=wrap;html=1;" parent="1" vertex="1">
          <mxGeometry x="160" y="1120" width="120" height="60" as="geometry" />
        </mxCell>
        <mxCell id="aALS2KatxD9Vpgga0ZvU-32" value="" style="edgeStyle=none;curved=1;rounded=0;orthogonalLoop=1;jettySize=auto;html=1;fontSize=12;startSize=8;endSize=8;" parent="1" source="aALS2KatxD9Vpgga0ZvU-28" target="aALS2KatxD9Vpgga0ZvU-30" edge="1">
          <mxGeometry relative="1" as="geometry" />
        </mxCell>
        <mxCell id="aALS2KatxD9Vpgga0ZvU-28" value="если пользователь отвечает правильно, то говорит, что неправильно&amp;nbsp;" style="whiteSpace=wrap;html=1;" parent="1" vertex="1">
          <mxGeometry x="320" y="1120" width="120" height="60" as="geometry" />
        </mxCell>
        <mxCell id="aALS2KatxD9Vpgga0ZvU-34" value="" style="edgeStyle=none;curved=1;rounded=0;orthogonalLoop=1;jettySize=auto;html=1;fontSize=12;startSize=8;endSize=8;" parent="1" source="aALS2KatxD9Vpgga0ZvU-30" target="aALS2KatxD9Vpgga0ZvU-33" edge="1">
          <mxGeometry relative="1" as="geometry" />
        </mxCell>
        <mxCell id="aALS2KatxD9Vpgga0ZvU-38" value="" style="edgeStyle=none;curved=1;rounded=0;orthogonalLoop=1;jettySize=auto;html=1;fontSize=12;startSize=8;endSize=8;" parent="1" source="aALS2KatxD9Vpgga0ZvU-30" target="aALS2KatxD9Vpgga0ZvU-37" edge="1">
          <mxGeometry relative="1" as="geometry" />
        </mxCell>
        <mxCell id="aALS2KatxD9Vpgga0ZvU-30" value="после завершения слов, бот предлагает удалить все слова или повторить" style="whiteSpace=wrap;html=1;" parent="1" vertex="1">
          <mxGeometry x="235" y="1240" width="120" height="60" as="geometry" />
        </mxCell>
        <mxCell id="aALS2KatxD9Vpgga0ZvU-36" value="" style="edgeStyle=none;curved=1;rounded=0;orthogonalLoop=1;jettySize=auto;html=1;fontSize=12;startSize=8;endSize=8;" parent="1" source="aALS2KatxD9Vpgga0ZvU-33" target="aALS2KatxD9Vpgga0ZvU-35" edge="1">
          <mxGeometry relative="1" as="geometry" />
        </mxCell>
        <mxCell id="aALS2KatxD9Vpgga0ZvU-33" value="если повторить: /repeat" style="whiteSpace=wrap;html=1;" parent="1" vertex="1">
          <mxGeometry x="120" y="1320" width="120" height="60" as="geometry" />
        </mxCell>
        <mxCell id="aALS2KatxD9Vpgga0ZvU-35" value="повторяем те же слова" style="whiteSpace=wrap;html=1;" parent="1" vertex="1">
          <mxGeometry x="115" y="1420" width="120" height="60" as="geometry" />
        </mxCell>
        <mxCell id="aALS2KatxD9Vpgga0ZvU-40" value="" style="edgeStyle=none;curved=1;rounded=0;orthogonalLoop=1;jettySize=auto;html=1;fontSize=12;startSize=8;endSize=8;" parent="1" source="aALS2KatxD9Vpgga0ZvU-37" target="aALS2KatxD9Vpgga0ZvU-39" edge="1">
          <mxGeometry relative="1" as="geometry" />
        </mxCell>
        <mxCell id="aALS2KatxD9Vpgga0ZvU-37" value="если удалить: /alldelete" style="whiteSpace=wrap;html=1;" parent="1" vertex="1">
          <mxGeometry x="320" y="1320" width="120" height="60" as="geometry" />
        </mxCell>
        <mxCell id="aALS2KatxD9Vpgga0ZvU-39" value="удаляем все слова" style="whiteSpace=wrap;html=1;" parent="1" vertex="1">
          <mxGeometry x="320" y="1420" width="120" height="60" as="geometry" />
        </mxCell>
      </root>
    </mxGraphModel>
  </diagram>
</mxfile>
